{"title":"La boheme (King Vidor, 1926)","uid":8338786,"size":1369311966,"categoryP":"video","categoryS":"movies","magnet":"?xt=urn:btih:e6721d6aa27d5e86d02ca9d85c70c7ef5d7e8c5c&amp;dn=La+boheme+%28King+Vidor%2C+1926%29&amp;tr=udp%3A%2F%2Ftracker.openbittorrent.com%3A80&amp;tr=udp%3A%2F%2Fopen.demonii.com%3A1337&amp;tr=udp%3A%2F%2Ftracker.coppersurfer.tk%3A6969&amp;tr=udp%3A%2F%2Fexodus.desync.com%3A6969","seeders":2,"leechers":0,"uploader":"moonflux","files":1,"time":1365035791,"description":"Mimi and Rodolphe's tragic love has been immortalized as a novel, a play, a Puccini opera, the inspiration for Broadway's Rent and in film - including this superb version. King Vidor (The Big Parade) directs two of the greatest stars of the silent-film era: Lillian Gish, frail and lovely as Mimi, and John Gilbert, all artistic fire as the aspiring playwright Rodolphe. Living in the Bohemian district of 1830 Paris, the two suffer through poverty, jealousy and heartbreaking separation. \n\nGeneral\nComplete name : La.Boheme.1926.XviD.avi\nFormat : AVI\nFormat/Info : Audio Video Interleave\nFile size : 1.28 GiB\nDuration : 1h 33mn\nOverall bit rate : 1 953 Kbps\n\nVideo\nID : 0\nFormat : MPEG-4 Visual\nFormat profile : Advanced Simple@L5\nFormat settings, BVOP : 2\nFormat settings, QPel : No\nFormat settings, GMC : No warppoints\nFormat settings, Matrix : Custom\nCodec ID : XVID\nCodec ID/Hint : XviD\nDuration : 1h 33mn\nBit rate : 1 812 Kbps\nWidth : 640 pixels\nHeight : 480 pixels\nDisplay aspect ratio : 4:3\nFrame rate : 23.976 fps\nColor space : YUV\nChroma subsampling : 4:2:0\nBit depth : 8 bits\nScan type : Progressive\nCompression mode : Lossy\nBits/(Pixel*Frame) : 0.246\nStream size : 1.18 GiB (93%)\nWriting library : XviD 1.2.1 (UTC 2008-12-04)\n\nAudio\nID : 1\nFormat : MPEG Audio\nFormat version : Version 1\nFormat profile : Layer 3\nCodec ID : 55\nCodec ID/Hint : MP3\nDuration : 1h 33mn\nBit rate mode : Constant\nBit rate : 128 Kbps\nChannel(s) : 2 channels\nSampling rate : 48.0 KHz\nCompression mode : Lossy\nStream size : 85.6 MiB (7%)\nAlignment : Split accross interleaves\nInterleave, duration : 24 ms (0.58 video frame)\nWriting library : LAME3.98.4UUUUUUU\u0002[v\n\n\n    \n","torrent":{"xt":"urn:btih:e6721d6aa27d5e86d02ca9d85c70c7ef5d7e8c5c","amp;dn":"La+boheme+%28King+Vidor%2C+1926%29","amp;tr":["udp%3A%2F%2Ftracker.openbittorrent.com%3A80","udp%3A%2F%2Fopen.demonii.com%3A1337","udp%3A%2F%2Ftracker.coppersurfer.tk%3A6969","udp%3A%2F%2Fexodus.desync.com%3A6969"],"infoHash":"e6721d6aa27d5e86d02ca9d85c70c7ef5d7e8c5c","infoHashBuffer":{"type":"Buffer","data":[230,114,29,106,162,125,94,134,208,44,169,216,92,112,199,239,93,126,140,92]},"announce":[],"urlList":[]}}